<svg xmlns="http://www.w3.org/2000/svg" width="512" height="512" viewBox="0 0 512 512">
  <path fill="#805AFF" fill-rule="evenodd" d="M 239.0 425.5 L 222.0 421.5 L 207.5 405.0 L 244.5 366.0 L 242.0 363.5 L 216.0 372.5 L 199.0 368.5 L 194.5 362.0 L 192.5 343.0 L 184.5 335.0 L 192.5 322.0 L 177.5 313.0 L 181.5 300.0 L 164.0 292.5 L 160.5 288.0 L 176.5 262.0 L 179.5 240.0 L 183.0 239.5 L 216.0 265.5 L 239.5 289.0 L 266.5 324.0 L 281.5 361.0 L 281.5 377.0 L 277.5 390.0 L 280.0 392.5 L 289.5 372.0 L 290.5 346.0 L 285.5 326.0 L 274.5 304.0 L 255.5 278.0 L 216.0 243.5 L 172.0 218.5 L 141.0 211.5 L 138.5 214.0 L 157.0 224.5 L 167.5 239.0 L 165.5 258.0 L 150.0 280.5 L 123.5 244.0 L 114.5 223.0 L 114.5 212.0 L 118.5 203.0 L 153.0 168.5 L 207.0 129.5 L 252.0 111.5 L 271.0 108.5 L 299.0 109.5 L 322.0 116.5 L 346.0 131.5 L 365.5 153.0 L 377.5 175.0 L 391.5 220.0 L 399.5 276.0 L 399.5 315.0 L 391.5 332.0 L 411.5 367.0 L 365.0 376.5 L 338.0 385.5 L 270.0 416.5 L 239.0 425.5 Z M 112.0 380.5 L 96.5 364.0 L 88.5 346.0 L 85.5 328.0 L 87.5 305.0 L 102.0 275.5 L 113.5 284.0 L 105.5 298.0 L 100.5 321.0 L 106.5 351.0 L 120.5 371.0 L 112.0 380.5 Z M 132.0 363.5 L 123.5 353.0 L 115.5 331.0 L 116.5 309.0 L 125.0 291.5 L 134.5 298.0 L 128.5 314.0 L 128.5 331.0 L 134.5 347.0 L 141.5 355.0 L 132.0 363.5 Z M 152.0 347.5 L 147.5 344.0 L 141.5 328.0 L 142.5 314.0 L 147.0 305.5 L 156.5 311.0 L 153.5 328.0 L 159.5 341.0 L 152.0 347.5 Z"/>
</svg>
